# xmcd CD database file generated by Grip 3.3.1
# 
# Track frame offsets:
#       225
#       17228
#       32527
#       48166
#       62230
#       79819
#       99960
#       120325
#       133416
#       146730
#       160606
#       179692
#       198895
# 
# Disc length: 2901 seconds
# 
# Revision: 1
# Processed by: cddbd v1.5.2PL0 Copyright (c) Steve Scherf et al.
# Submitted via: Grip 3.3.1
# 
DISCID=ad0b520d
DTITLE=16 Volt - FullBlackHabit.
DYEAR=2007
DGENRE=Industrial
TTITLE0=I'm Just A Mess
TTITLE1=Come For You
TTITLE2=Cables and Wires
TTITLE3=Suffering You
TTITLE4=And You Are All Alone Again
TTITLE5=The End Of It All
TTITLE6=Afterglow
TTITLE7=Feel It Through
TTITLE8=The Defect People
TTITLE9=The Error
TTITLE10=You Run
TTITLE11=Whisper Cure
TTITLE12=Therapy
EXTD=
EXTT0=
EXTT1=
EXTT2=
EXTT3=
EXTT4=
EXTT5=
EXTT6=
EXTT7=
EXTT8=
EXTT9=
EXTT10=
EXTT11=
EXTT12=
PLAYORDER=
